<svg width="167" height="24" xmlns="http://www.w3.org/2000/svg" xmlns:xlink="http://www.w3.org/1999/xlink"><defs><path d="M120.584 23.5V12.3h3.888c3.52 0 5.952 2.416 5.952 5.6 0 3.152-2.432 5.6-5.952 5.6h-3.888zm1.264-1.168h2.624c2.832 0 4.64-1.92 4.64-4.432 0-2.48-1.808-4.432-4.64-4.432h-2.624v8.864zm16.448 1.36c-3.408 0-5.696-2.672-5.696-5.792 0-3.088 2.32-5.792 5.728-5.792s5.696 2.672 5.696 5.792c0 3.088-2.32 5.792-5.728 5.792zm.032-1.168c2.56 0 4.384-2.048 4.384-4.624 0-2.544-1.856-4.624-4.416-4.624-2.56 0-4.384 2.048-4.384 4.624 0 2.544 1.856 4.624 4.416 4.624zm13.488 1.168c-3.232 0-5.616-2.544-5.616-5.792 0-3.168 2.368-5.792 5.664-5.792 2.032 0 3.216.752 4.336 1.808l-.832.896c-.944-.896-2-1.536-3.52-1.536-2.48 0-4.336 2.016-4.336 4.624 0 2.592 1.872 4.624 4.336 4.624 1.536 0 2.544-.592 3.616-1.616l.832.88c-1.168 1.184-2.448 1.904-4.48 1.904zm10.528-.032c-1.776 0-3.232-.592-4.576-1.792l.784-.928c1.168 1.056 2.288 1.584 3.84 1.584 1.504 0 2.496-.8 2.496-1.936 0-1.04-.56-1.632-2.912-2.128-2.576-.56-3.76-1.392-3.76-3.264 0-1.76 1.552-3.056 3.68-3.056 1.632 0 2.8.464 3.936 1.376l-.736.976c-1.04-.848-2.08-1.216-3.232-1.216-1.456 0-2.384.8-2.384 1.84 0 1.056.576 1.648 3.04 2.176 2.496.544 3.648 1.456 3.648 3.2 0 1.92-1.6 3.168-3.824 3.168z" id="a"/></defs><g fill="none" fill-rule="evenodd"><path d="M106.933 4.165c-.604-.6-1.564-.6-2.168 0l-3.254 3.23a1.505 1.505 0 0 0 0 2.152c.604.6 1.565.6 2.169 0l3.253-3.23c.605-.6.605-1.57 0-2.152m3.432 11.064h-4.605c-.853 0-1.529.689-1.529 1.518 0 .847.693 1.518 1.529 1.518h4.605c.853 0 1.528-.689 1.528-1.518 0-.83-.693-1.518-1.528-1.518M94.24 0c-.853 0-1.529.688-1.529 1.518v4.57c0 .847.693 1.518 1.53 1.518.852 0 1.528-.688 1.528-1.518v-4.57C95.787.688 95.093 0 94.24 0" fill="#FC501E" fill-rule="nonzero"/><g fill="#40506C"><path d="M5.44 23.559h3.04V9.282h5.458v-2.77H0v2.77h5.44z"/><path d="M18.436 21.159c-.48-.335-.73-.812-.73-1.43v-.052c0-.689.267-1.218.8-1.589.534-.37 1.28-.564 2.24-.564.587 0 1.138.052 1.636.14.498.107.942.212 1.316.371v.883c0 .406-.09.776-.267 1.129a2.896 2.896 0 0 1-.729.882c-.302.248-.675.424-1.084.565a4.925 4.925 0 0 1-1.37.194c-.728-.017-1.332-.176-1.812-.53m3.502 2.118a5.84 5.84 0 0 0 1.689-1.323v1.606h2.897v-7.624c0-.847-.106-1.606-.337-2.258a4.556 4.556 0 0 0-1.05-1.712c-.924-.953-2.364-1.43-4.301-1.43-1.032 0-1.92.089-2.685.283-.747.194-1.493.44-2.204.776l.782 2.312a11.858 11.858 0 0 1 1.742-.582c.569-.142 1.227-.212 1.956-.212 1.049 0 1.849.23 2.4.706.55.476.817 1.164.817 2.1v.317c-.515-.159-1.03-.3-1.564-.388-.533-.106-1.173-.141-1.92-.141a8.39 8.39 0 0 0-2.169.265c-.658.176-1.227.423-1.689.776a3.466 3.466 0 0 0-1.084 1.288c-.267.512-.391 1.13-.391 1.836v.053c0 .652.124 1.217.373 1.711s.587.918 1.013 1.236c.41.335.907.582 1.458.758a5.706 5.706 0 0 0 1.742.265c.996-.07 1.831-.247 2.525-.618" fill-rule="nonzero"/><path d="M30.258 23.559h2.969V5.753h-2.97zM37.849 23.559h2.969V19.87l1.849-1.906 3.822 5.576h3.484l-5.333-7.623 5.156-5.241h-3.61l-5.368 5.717V5.771h-2.97z"/><path d="M54.649 21.159c-.48-.335-.729-.812-.729-1.43v-.052c0-.689.267-1.218.8-1.589.533-.37 1.28-.564 2.24-.564.587 0 1.138.052 1.636.14.497.107.942.212 1.315.371v.883c0 .406-.089.776-.266 1.129a2.897 2.897 0 0 1-.73.882c-.302.248-.675.424-1.084.565a4.925 4.925 0 0 1-1.369.194c-.729-.017-1.333-.176-1.813-.53m3.502 2.118a5.838 5.838 0 0 0 1.689-1.323v1.606h2.898v-7.624c0-.847-.107-1.606-.338-2.258a4.559 4.559 0 0 0-1.049-1.712c-.924-.953-2.364-1.43-4.302-1.43-1.031 0-1.92.089-2.685.283-.746.194-1.493.44-2.204.776l.782 2.312a11.858 11.858 0 0 1 1.742-.582c.57-.142 1.227-.212 1.956-.212 1.049 0 1.849.23 2.4.706.551.476.818 1.164.818 2.1v.317c-.516-.159-1.031-.3-1.565-.388-.533-.106-1.173-.141-1.92-.141a8.39 8.39 0 0 0-2.169.265c-.657.176-1.226.423-1.688.776a3.466 3.466 0 0 0-1.085 1.288c-.267.512-.391 1.13-.391 1.836v.053c0 .652.124 1.217.373 1.711.25.494.587.918 1.014 1.236.409.335.906.582 1.457.758a5.706 5.706 0 0 0 1.743.265c.995-.07 1.83-.247 2.524-.618M72.018 20.965a3.571 3.571 0 0 1-1.21-.847 4.083 4.083 0 0 1-.817-1.306c-.213-.512-.302-1.059-.302-1.677v-.053c0-.617.107-1.182.302-1.676.213-.512.48-.935.818-1.306.338-.37.747-.653 1.209-.847.462-.194.942-.3 1.44-.3.515 0 .978.106 1.44.3.444.194.835.476 1.173.83.338.352.605.794.8 1.305.196.512.302 1.077.302 1.694v.053c0 .635-.106 1.2-.302 1.712a3.783 3.783 0 0 1-.8 1.288 3.58 3.58 0 0 1-1.173.812 3.56 3.56 0 0 1-1.44.3 3.384 3.384 0 0 1-1.44-.282m4.39 2.417a5.646 5.646 0 0 0 1.92-1.288c.57-.565 1.014-1.27 1.352-2.1.338-.83.498-1.782.498-2.859v-.053c0-1.076-.178-2.029-.516-2.858a6.496 6.496 0 0 0-1.35-2.1 5.405 5.405 0 0 0-1.92-1.289 5.802 5.802 0 0 0-2.223-.44c-1.067 0-1.956.229-2.649.705a6.483 6.483 0 0 0-1.76 1.712V5.735h-2.969v17.789h2.969v-1.977c.462.6 1.031 1.13 1.742 1.588.711.459 1.6.689 2.685.689.764 0 1.51-.142 2.222-.442" fill-rule="nonzero"/><path d="M82.951 23.559h2.969V5.753h-2.969z"/><path d="M91.556 16.218c.124-1.006.497-1.818 1.084-2.453.587-.618 1.351-.936 2.258-.936.498 0 .924.089 1.315.265.391.177.711.424.996.724.284.3.498.653.658 1.076.16.406.266.865.32 1.324h-6.631zm6.79 6.97a7.37 7.37 0 0 0 2.223-1.747l-1.742-1.535a5.858 5.858 0 0 1-1.6 1.147c-.534.265-1.174.388-1.92.388-.96 0-1.796-.282-2.472-.847-.675-.564-1.102-1.376-1.262-2.417h9.53c.017-.142.035-.283.035-.424 0-.141.018-.265.018-.406 0-.918-.125-1.8-.391-2.647a6.747 6.747 0 0 0-1.174-2.206c-.515-.635-1.173-1.13-1.938-1.518-.782-.37-1.688-.564-2.72-.564-.942 0-1.795.176-2.56.53-.764.352-1.44.829-2.008 1.429a6.44 6.44 0 0 0-1.316 2.135c-.32.812-.462 1.676-.462 2.612v.053c0 .988.178 1.905.515 2.717.338.83.818 1.518 1.422 2.1a6.478 6.478 0 0 0 2.116 1.359c.8.318 1.689.494 2.613.494 1.21 0 2.24-.212 3.094-.653z" fill-rule="nonzero"/></g><g><use fill="#000" xlink:href="#a"/><use fill="#40506C" xlink:href="#a"/></g></g></svg>